# xmcd CD database file
#
# Track frame offsets:
#	150
#	13384
#	25813
#	38553
#	52929
#	63483
#	75823
#	88117
#	101393
#	111849
#	124860
#	136836
#	151447
#	163832
#	176445
#	184726
#	200099
#	214144
#	228453
#	247208
#	264245
#	282161
#	305625
#
# Disc length: 4352 seconds
#
# Revision: 0
# Processed by: cddbd v1.5.1PL0 Copyright (c) Steve Scherf et al.
# Submitted via: CDex 1.51
#
DISCID=3d10fe17
DTITLE=Guy Marchand - Guy Marchand
DYEAR=2003
DGENRE=Jazz
TTITLE0=La passionnata
TTITLE1=Le chanteur de charme
TTITLE2=L'amoureux transi
TTITLE3=Ich liebe dich Marlene
TTITLE4=Sentimental
TTITLE5=Le knack
TTITLE6=Le gentleman de Monte-Carlo
TTITLE7=Broadway
TTITLE8=Ben v'là aut'chose
TTITLE9=Sans moi
TTITLE10=Je cherche une femme
TTITLE11=C'est une chanson d'amour
TTITLE12=Bye bye les girls
TTITLE13=C'est là que je descends
TTITLE14=Plaisir d'amour (BOF Boulevard du rhum)
TTITLE15=L'amerloque
TTITLE16=Les filles on ne sait jamais (Oh babe what would you say)
TTITLE17=Moi je suis tango
TTITLE18=Mister tango
TTITLE19=Hey crooner
TTITLE20=Relax
TTITLE21=Taxi de nuit
TTITLE22=Destinée
EXTD=YEAR: 2003
EXTT0=
EXTT1=
EXTT2=
EXTT3=
EXTT4=
EXTT5=
EXTT6=
EXTT7=
EXTT8=
EXTT9=
EXTT10=
EXTT11=
EXTT12=
EXTT13=
EXTT14=
EXTT15=
EXTT16=
EXTT17=
EXTT18=
EXTT19=
EXTT20=
EXTT21=
EXTT22=
PLAYORDER=
